<svg xmlns="http://www.w3.org/2000/svg" width="1500" height="980" viewBox="0 0 1500 980">
  <rect width="1500" height="980" fill="#E9E3DA"/>
  <style>
    .title{font:700 42px Georgia,serif;fill:#19231F}.sub{font:18px Arial,sans-serif;fill:#626B65}
    .name{font:700 24px Arial,sans-serif}.small{font:14px Arial,sans-serif}.line{fill:none;stroke-width:4}
  </style>
  <text x="72" y="80" class="title">Ledger · homepage directions</text>
  <text x="72" y="116" class="sub">Three early directions shown in light and dark. “Hearth” was selected for implementation.</text>

  <g transform="translate(72 170)">
    <text x="0" y="-18" class="name" fill="#19231F">01 / Hearth · selected</text>
    <rect width="420" height="300" rx="24" fill="#FFFDF8"/><rect x="0" y="0" width="420" height="52" rx="24" fill="#F2EEE7"/>
    <circle cx="28" cy="26" r="14" fill="#B94A34"/><rect x="24" y="86" width="260" height="94" rx="16" fill="#F8DED4"/>
    <path d="M40 155L100 132L160 142L220 104L280 118L340 84L386 92" class="line" stroke="#B94A34"/>
    <rect x="24" y="200" width="176" height="72" rx="14" fill="#DBECE4"/><rect x="218" y="200" width="178" height="72" rx="14" fill="#F5E7C7"/>
    <text x="24" y="292" class="small" fill="#626B65">warm · editorial · tactile</text>
    <g transform="translate(0 332)">
      <rect width="420" height="300" rx="24" fill="#17201C"/><rect width="420" height="52" rx="24" fill="#101714"/>
      <circle cx="28" cy="26" r="14" fill="#F27B5E"/><rect x="24" y="86" width="260" height="94" rx="16" fill="#3B2923"/>
      <path d="M40 155L100 132L160 142L220 104L280 118L340 84L386 92" class="line" stroke="#F27B5E"/>
      <rect x="24" y="200" width="176" height="72" rx="14" fill="#1E3A30"/><rect x="218" y="200" width="178" height="72" rx="14" fill="#3C3320"/>
    </g>
  </g>

  <g transform="translate(540 170)">
    <text x="0" y="-18" class="name" fill="#19231F">02 / Precision</text>
    <rect width="420" height="300" rx="8" fill="#F8FAF9"/><rect width="92" height="300" rx="8" fill="#DFE7E3"/>
    <rect x="116" y="32" width="120" height="12" rx="4" fill="#23352D"/><rect x="116" y="74" width="280" height="98" rx="8" fill="#EDF1EF"/>
    <path d="M130 145L182 122L234 136L286 96L338 112L382 82" class="line" stroke="#2C6E5A"/>
    <rect x="116" y="194" width="130" height="76" rx="8" fill="#E7EFE9"/><rect x="262" y="194" width="134" height="76" rx="8" fill="#EDE9DF"/>
    <text x="116" y="292" class="small" fill="#52635B">structured · analytical · calm</text>
    <g transform="translate(0 332)">
      <rect width="420" height="300" rx="8" fill="#101512"/><rect width="92" height="300" rx="8" fill="#18211D"/>
      <rect x="116" y="32" width="120" height="12" rx="4" fill="#DCE9E3"/><rect x="116" y="74" width="280" height="98" rx="8" fill="#1B2420"/>
      <path d="M130 145L182 122L234 136L286 96L338 112L382 82" class="line" stroke="#66B495"/>
      <rect x="116" y="194" width="130" height="76" rx="8" fill="#1A2D25"/><rect x="262" y="194" width="134" height="76" rx="8" fill="#2C291F"/>
    </g>
  </g>

  <g transform="translate(1008 170)">
    <text x="0" y="-18" class="name" fill="#19231F">03 / Atelier</text>
    <rect width="420" height="300" rx="30" fill="#F6F0E8"/><circle cx="342" cy="74" r="88" fill="#E9C7B8"/>
    <rect x="28" y="30" width="160" height="18" rx="9" fill="#342D2A"/><text x="28" y="92" class="small" fill="#6E625D">NET POSITION</text>
    <path d="M30 198C90 120 130 238 190 162S300 214 392 108" class="line" stroke="#AE4F3F"/>
    <rect x="28" y="226" width="364" height="46" rx="23" fill="#342D2A"/>
    <text x="28" y="292" class="small" fill="#6E625D">expressive · soft · fashion-led</text>
    <g transform="translate(0 332)">
      <rect width="420" height="300" rx="30" fill="#181412"/><circle cx="342" cy="74" r="88" fill="#512E28"/>
      <rect x="28" y="30" width="160" height="18" rx="9" fill="#F3E7DC"/><text x="28" y="92" class="small" fill="#A99991">NET POSITION</text>
      <path d="M30 198C90 120 130 238 190 162S300 214 392 108" class="line" stroke="#E3836E"/>
      <rect x="28" y="226" width="364" height="46" rx="23" fill="#F3E7DC"/>
    </g>
  </g>
</svg>
